<svg xmlns="http://www.w3.org/2000/svg" viewBox="0 0 331.24 241.6"><defs><style>.cls-1,.cls-2,.cls-3,.cls-4,.cls-5,.cls-7,.cls-8{fill:none;}.cls-1,.cls-2,.cls-3,.cls-4,.cls-5,.cls-7,.cls-8,.cls-9{stroke:#000;stroke-miterlimit:10;}.cls-1{stroke-width:0.92px;}.cls-2{stroke-width:0.94px;}.cls-3{stroke-width:0.92px;}.cls-4{stroke-width:0.65px;}.cls-5{stroke-width:0.5px;}.cls-6{fill:#fff;}.cls-7,.cls-9{stroke-width:0.38px;}.cls-8{stroke-width:0.31px;}</style></defs><title>pneuBadsvg</title><g id="Layer_2" data-name="Layer 2"><g id="Layer_1-2" data-name="Layer 1"><path d="M166.82,241a69.42,69.42,0,0,0,7.89,0c2.63-.09,5.23-.3,7.82-.62,4.18,1.62,7.18-2.38,11.18-4.38,7.5-3,12.75-9.75,18.25-15.87a72.61,72.61,0,0,1,5.69-5.8c4.06-3.33,9.06-7.33,14.06-7.33,30,4,63-3,72.91-34.26a76,76,0,0,0,3-8.88,68.05,68.05,0,0,0,1.75-8.82c.81-3.08,1.66-6.13,2.6-9.17A134.49,134.49,0,0,1,328.71,110c7.5-11.66-7.22-16.39-14.82-25a17.07,17.07,0,0,1-3.5-5.74C301.71,66,297.71,50,290.71,36c-6.09-12.16-20.27-12.18-33.25-13.11l0,.43C283.9,25.12,294,56.77,301.91,80.59a26.06,26.06,0,0,0,4.75,7.91c6,7.42,14.3,13.79,9,23.54-6,10.5-10,21.25-13.75,32.13-.94,2.71-1.86,5.44-2.79,8.17a92.25,92.25,0,0,1-6.24,17.15A41,41,0,0,1,268.71,194c-20,7-42-4-58.22,13.32-1.9,1.59-3.75,3.25-5.59,4.92-5.53,5-11,10.14-17.22,13.93a41.47,41.47,0,0,1-8,3.82,19.24,19.24,0,0,1-9.61,1.87A36.39,36.39,0,0,1,160,229.83a80.53,80.53,0,0,0-9.71-2.41c-3.53-.38-8.53,1.62-12.53-2.38-11-15-28-22-45.21-23.31-2.65-.37-5.29-.69-7.94-1s-5.3-.56-7.94-.83-5.26-.45-7.73-.68C64,198.79,59.71,198,57.71,195c-12-11.25-19.5-25.31-30.09-38-1.77-2.11-3.62-4.18-5.49-6.16a57.76,57.76,0,0,1-5-14.11,72.35,72.35,0,0,1-1.28-7.68C14.71,99,31.71,71,47.64,47.32A49.78,49.78,0,0,1,54.71,43c11.82-5.45,24.44-9.26,34.74-16.56a40.71,40.71,0,0,1-5.21,2.3,209.87,209.87,0,0,0-30,6.91c-2.49.79-5,1.62-7.39,2.52C44.71,40,39.71,40,39.71,43a51.2,51.2,0,0,1-12,28c-15,19-27,39-26,62.79-.27,2.72-.59,5.45-1,8.21-1,5,1,10,6,14,2.34,2,4.61,4,6.82,6,11,10.14,20.35,21,26.18,36,5,10.85,17.64,9.87,29.24,9.07,2.32-.16,4.6-.32,6.78-.38a31.29,31.29,0,0,1,10-1.09c20-.59,30,19.41,46,28.41,6,3,12,3,18.13,1.21a43.68,43.68,0,0,1,9.87,2.25A10.77,10.77,0,0,0,166.82,241Z"/><path d="M96.31,21.65c1.45-.93,2.91-1.86,4.37-2.75,13.7-8.4,27.87-14.43,44.73-10A54.16,54.16,0,0,0,152,8.43a84.52,84.52,0,0,0,19.34-5.27A66.48,66.48,0,0,1,179.71,1c.63-.12,1.24-.22,1.84-.3-3.05.11-6.14.39-9.26.78-6.64,1.63-13.69,2.16-20.79,2.54-3.54.18-7.11.32-10.63.55C125.71,4,108.71,6,99.71,18A34.51,34.51,0,0,1,96.31,21.65Z"/><path d="M235.46,23.79a82.78,82.78,0,0,0,8.29,1.07,42.3,42.3,0,0,1,13.67-1.51l0-.43a71,71,0,0,1-11.62-1.57q-4.46-.64-8.88-1.67c-2.46-.57-4.91-1.21-7.32-2C217,6.4,203.54,1.69,189.74.81c14.38,2.31,24.77,15.42,37.58,20.86A50.77,50.77,0,0,0,235.46,23.79Z"/><path class="cls-1" d="M181.55.73c-3.05.11-6.14.39-9.26.78-6.64,1.63-13.69,2.16-20.79,2.54-3.54.18-7.11.32-10.63.55C125.71,4,108.71,6,99.71,18a34.51,34.51,0,0,1-3.4,3.61"/><path class="cls-1" d="M89.45,26.48a40.71,40.71,0,0,1-5.21,2.3,209.87,209.87,0,0,0-30,6.91c-2.49.79-5,1.62-7.39,2.52C44.71,40,39.71,40,39.71,43a51.2,51.2,0,0,1-12,28c-15,19-27,39-26,62.79-.27,2.72-.59,5.45-1,8.21-1,5,1,10,6,14,2.34,2,4.61,4,6.82,6,11,10.14,20.35,21,26.18,36,5,10.85,17.64,9.87,29.24,9.07,2.32-.16,4.6-.32,6.78-.38a31.29,31.29,0,0,1,10-1.09c20-.59,30,19.41,46,28.41,6,3,12,3,18.13,1.21a43.68,43.68,0,0,1,9.87,2.25,10.77,10.77,0,0,0,7.11,3.49,69.42,69.42,0,0,0,7.89,0c2.63-.09,5.23-.3,7.82-.62,4.18,1.62,7.18-2.38,11.18-4.38,7.5-3,12.75-9.75,18.25-15.87a72.61,72.61,0,0,1,5.69-5.8c4.06-3.33,9.06-7.33,14.06-7.33,30,4,63-3,72.91-34.26a76,76,0,0,0,3-8.88,68.05,68.05,0,0,0,1.75-8.82c.81-3.08,1.66-6.13,2.6-9.17A134.49,134.49,0,0,1,328.71,110c7.5-11.66-7.22-16.39-14.82-25a17.07,17.07,0,0,1-3.5-5.74C301.71,66,297.71,50,290.71,36c-6.09-12.16-20.27-12.18-33.25-13.11a71,71,0,0,1-11.62-1.57q-4.46-.64-8.88-1.67c-2.46-.57-4.91-1.21-7.32-2C217,6.4,203.54,1.69,189.74.81"/><path class="cls-1" d="M96.3,21.66c-1.27.82-2.53,1.65-3.8,2.49-1,.82-2,1.59-3,2.33C79.15,33.78,66.53,37.59,54.71,43a49.78,49.78,0,0,0-7.07,4.28C31.71,71,14.71,99,15.82,129.12a72.35,72.35,0,0,0,1.28,7.68,57.76,57.76,0,0,0,5,14.11c1.87,2,3.72,4.05,5.49,6.16,10.59,12.66,18.09,26.72,30.09,38,2,3,6.25,3.75,11.18,4.19,2.47.23,5.12.37,7.73.68s5.29.53,7.94.83,5.29.62,7.94,1C109.71,203,126.71,210,137.71,225c4,4,9,2,12.53,2.38a80.53,80.53,0,0,1,9.71,2.41,36.39,36.39,0,0,0,10.15,2.07,19.24,19.24,0,0,0,9.61-1.87,41.47,41.47,0,0,0,8-3.82c6.27-3.79,11.69-8.92,17.22-13.93,1.84-1.67,3.69-3.33,5.59-4.92C226.71,190,248.71,201,268.71,194a41,41,0,0,0,24.22-24.55,92.25,92.25,0,0,0,6.24-17.15c.93-2.73,1.85-5.46,2.79-8.17,3.75-10.88,7.75-21.63,13.75-32.13,5.25-9.75-3-16.12-9-23.54a26.06,26.06,0,0,1-4.75-7.91c-8-23.82-18-55.47-44.49-57.24a42.3,42.3,0,0,0-13.67,1.51,82.78,82.78,0,0,1-8.29-1.07,50.77,50.77,0,0,1-8.14-2.12C214.51,16.23,204.12,3.12,189.74.81a27.31,27.31,0,0,0-8.19-.08c-.6.08-1.21.18-1.84.3a66.48,66.48,0,0,0-8.33,2.13A84.52,84.52,0,0,1,152,8.43a54.16,54.16,0,0,1-6.63.47c-16.86-4.43-31,1.6-44.73,10-1.46.89-2.92,1.82-4.37,2.75"/><path class="cls-1" d="M159.88,227.44a23,23,0,0,0,8.34,2.78,11.23,11.23,0,0,0,8.49-2.2c2.25-.83,4.5-1.58,6.73-2.4,8.73-6.22,17.13-13.2,25.92-19,2.2-1.45,4.42-2.84,6.68-4.13C229.71,195,244.71,192,260.71,192c14-1,23-15,30.49-27.22,1.33-2.42,2.57-4.82,3.72-7.11,1.33-3.27,2.55-6.62,3.7-10,4.61-13.55,8.14-27.61,13.09-40.66,1.5-4-.75-9-3.89-14.35-1.57-2.68-3.36-5.45-5-8.22A316.93,316.93,0,0,1,284.71,43c-6-15-23-15-37.07-17.61-3-.34-6-.74-9-1.19s-5.94-1-8.88-1.66c-16-12.27-32.32-17.41-49-17.55a95.56,95.56,0,0,0-10.08.47c-7,.39-14.09.74-21.06,1.42q-5.23.51-10.39,1.28c-15.5,2.37-31.28,6.93-45.37,15.9Q89.67,26.79,85.52,30a105.58,105.58,0,0,0-28.78,14.1,86,86,0,0,0-8.18,6.52C31.71,74,17.71,101,20,129.16a56.06,56.06,0,0,0,1.23,6.22,42.1,42.1,0,0,0,8.22,16.45c2.35,2.69,4.51,5.45,6.55,8.25,8.14,11.18,14.37,23,23.7,33,3,3,7.75,3.5,12.94,4,2.59.23,5.29.45,8,.92,3.18.86,6.41,1.6,9.66,2.31,19.4,2.81,36.4,8.81,51.4,22.81A26.71,26.71,0,0,0,154.79,226C156.48,226.4,158.17,226.9,159.88,227.44Z"/><path d="M159.78,225.54a23.14,23.14,0,0,0,10,2.75,27.69,27.69,0,0,0,10.2-1.81,19.33,19.33,0,0,0,7.93-2.39,18.61,18.61,0,0,0,5.84-5.05,70.93,70.93,0,0,1,12-11.71l-.23-.29c-6.49,4.94-12.79,10.37-19.33,15.22a67.82,67.82,0,0,1-6.41,2.78,21.86,21.86,0,0,1-10,2.2,20.48,20.48,0,0,1-10-2.65c-3.27-1-6.5-1.91-9.81-2.73-4.2-1.93-8.24-4.11-12.23-6.36,2.72,2.06,5.38,4.25,8,6.54,3,1,6,3,9.07,2.1C156.44,224.58,158.1,225.05,159.78,225.54Z"/><path d="M95.2,199.67a53.47,53.47,0,0,1,15.66,1.81,66.4,66.4,0,0,0-18.3-4.57c-3.33-.76-6.7-1.47-10.07-2.18-2.93-.67-5.87-1.17-8.67-1.85-5.61-1.34-10.61-3.34-13.11-8.84-2-4-4-7-6-11-5-8.49-12.25-15.24-18.66-22.21a64.21,64.21,0,0,1-5.71-7,52.22,52.22,0,0,1-2.23-6.56,54,54,0,0,1-1.33-6.84c-1.52-21.58,1.85-43,11.82-61.46-9.79,16.73-16.22,35.3-14.42,54.78a79.91,79.91,0,0,0,1.2,8.55,56.62,56.62,0,0,0,5.21,15.33q3.3,3.83,6.52,7.74c8.6,10.45,16.6,21.33,24.6,32.67,3,3.5,7.5,5.25,12.35,6.63,2.43.69,5,1.29,7.47,1.94a66.74,66.74,0,0,0,6.73,1.82C90.54,198.92,92.86,199.31,95.2,199.67Z"/><path d="M205.45,207l.23.29c.6-.47,1.21-.92,1.83-1.36a67.45,67.45,0,0,1,7.59-4.65c13.39-7.22,30.44-8.15,45.17-12.45-.51.08-1,.14-1.56.17-16,1-33,2-45.83,12.66-2.31,1.54-4.57,3.17-6.82,4.87Z"/><path d="M288.08,160.57c-3.92,9.84-10.32,20-18.94,25.1,8.52-3.85,15.63-9.83,19.82-20.36,1.47-2.59,2.79-5.23,4-7.87s2.26-5.25,3.19-7.8c1.12-3.11,2.13-6.3,3.06-9.51,3.72-12.86,6.12-26.29,8.52-39.09,0-2-1.75-5-4-8.3s-4.92-6.88-6.81-10c-3.22-15.38-8.81-30.31-18.17-41.26,8.08,10.87,12.62,25.71,16.86,38.51a27.15,27.15,0,0,0,2.89,7.22c3.83,6.94,9.45,13.13,7.2,19.88-3.5,11.81-6.62,24.2-10.65,36.21-1,3-2.07,6-3.21,8.94C290.67,154.83,289.42,157.67,288.08,160.57Z"/><path d="M50.65,51.15c-1.3,1.7-2.58,3.42-3.82,5.18q2.46-3.18,5.26-6.19c2.74-2.28,5.61-4.43,8.6-6.48A204.25,204.25,0,0,1,89.32,27.74c2.75-1.92,5.47-3.8,8.24-5.57q3.19-2.12,6.48-4c-2.94,1.39-5.85,2.91-8.71,4.53-3.07,1.7-6.11,3.52-9.19,5.4A192.11,192.11,0,0,0,58.82,44.59Q54.58,47.72,50.65,51.15Z"/><path d="M247.71,26a38.79,38.79,0,0,1,10.5,1,52.94,52.94,0,0,0-16.41-3q-5.25-1.25-10.45-2.62A33.6,33.6,0,0,1,226.78,20c1.51.81,3,1.61,4.5,2.39q3.27.82,6.56,1.56Q242.76,25.08,247.71,26Z"/><path d="M133.12,9.2a49.33,49.33,0,0,1,9.5.72A66.64,66.64,0,0,0,150,8.27c.57-.15,1.13-.31,1.69-.49l-1,.13q-3.52.43-7,.68A73.32,73.32,0,0,0,133.12,9.2Z"/><path d="M214.42,13.38C207.28,8.77,200.32,3.76,191.71,2a33.66,33.66,0,0,0-10.12-.84,45.7,45.7,0,0,0-9.34,1.7s0,0,.07,0a46.62,46.62,0,0,1,10.32-.33C193.59,3.42,204.06,8,214.42,13.38Z"/><path class="cls-2" d="M38.6,69c-9.79,16.73-16.22,35.3-14.42,54.78a79.91,79.91,0,0,0,1.2,8.55,56.62,56.62,0,0,0,5.21,15.33q3.3,3.83,6.52,7.74c8.6,10.45,16.6,21.33,24.6,32.67,3,3.5,7.5,5.25,12.35,6.63,2.43.69,5,1.29,7.47,1.94a66.74,66.74,0,0,0,6.73,1.82c2.28.49,4.6.88,6.94,1.24a53.47,53.47,0,0,1,15.66,1.81"/><path class="cls-2" d="M104,18.2c-2.94,1.39-5.85,2.91-8.71,4.53-3.07,1.7-6.11,3.52-9.19,5.4A192.11,192.11,0,0,0,58.82,44.59q-4.24,3.13-8.17,6.56c-1.3,1.7-2.58,3.42-3.82,5.18"/><path class="cls-2" d="M151.72,7.78l-1,.13q-3.52.43-7,.68a73.32,73.32,0,0,0-10.6.61"/><path class="cls-2" d="M214.42,13.38C207.28,8.77,200.32,3.76,191.71,2a33.66,33.66,0,0,0-10.12-.84,45.7,45.7,0,0,0-9.34,1.7"/><path class="cls-2" d="M258.21,27a52.94,52.94,0,0,0-16.41-3q-5.25-1.25-10.45-2.62A33.6,33.6,0,0,1,226.78,20"/><path class="cls-2" d="M269.14,185.67c8.52-3.85,15.63-9.83,19.82-20.36,1.47-2.59,2.79-5.23,4-7.87s2.26-5.25,3.19-7.8c1.12-3.11,2.13-6.3,3.06-9.51,3.72-12.86,6.12-26.29,8.52-39.09,0-2-1.75-5-4-8.3s-4.92-6.88-6.81-10c-3.22-15.38-8.81-30.31-18.17-41.26"/><path class="cls-2" d="M137.68,215.5c2.72,2.06,5.38,4.25,8,6.54,3,1,6,3,9.07,2.1,1.66.44,3.32.91,5,1.4a23.14,23.14,0,0,0,10,2.75,27.69,27.69,0,0,0,10.2-1.81,19.33,19.33,0,0,0,7.93-2.39,18.61,18.61,0,0,0,5.84-5.05,70.93,70.93,0,0,1,12-11.71c.6-.47,1.21-.92,1.83-1.36a67.45,67.45,0,0,1,7.59-4.65c13.39-7.22,30.44-8.15,45.17-12.45"/><path class="cls-3" d="M110.86,201.48c9.37,3.72,18,9,26.81,14"/><path class="cls-3" d="M133.1,9.21c-10.44.23-19.95,3.81-29,9"/><path class="cls-3" d="M151.72,7.78c-.56.18-1.12.34-1.69.49a66.64,66.64,0,0,1-7.41,1.65,49.33,49.33,0,0,0-9.5-.72"/><path class="cls-3" d="M269.14,185.67c8.62-5.13,15-15.26,18.94-25.1,1.34-2.9,2.59-5.74,3.77-8.38,1.14-2.94,2.21-5.93,3.21-8.94,4-12,7.15-24.4,10.65-36.21,2.25-6.75-3.37-12.94-7.2-19.88a27.15,27.15,0,0,1-2.89-7.22c-4.24-12.8-8.78-27.64-16.86-38.51"/><path class="cls-3" d="M205.45,207l.61-.47c2.25-1.7,4.51-3.33,6.82-4.87C225.71,191,242.71,190,258.71,189c.53,0,1.05-.09,1.56-.17"/><path d="M152.36,102.94a12.72,12.72,0,1,0,22.43-6.87c-5.08-6-12.08-5-17.92-1.61A12.39,12.39,0,0,0,152.36,102.94Zm11.78,10.81a9.77,9.77,0,0,1-8.92-10.54,9.56,9.56,0,0,1,3.49-6.56c4-3.61,10-2.61,13.87,1.26a9.62,9.62,0,0,1,2.25,7.09A9.78,9.78,0,0,1,164.14,113.75Z"/><path class="cls-4" d="M163.89,116.57a12.51,12.51,0,0,0,10.9-20.5c-5.08-6-12.08-5-17.92-1.61a12.39,12.39,0,0,0-4.51,8.48A12.62,12.62,0,0,0,163.89,116.57Z"/><path class="cls-5" d="M164.14,113.75A9.78,9.78,0,0,0,174.83,105a9.62,9.62,0,0,0-2.25-7.09c-3.87-3.87-9.87-4.87-13.87-1.26a9.56,9.56,0,0,0-3.49,6.56A9.77,9.77,0,0,0,164.14,113.75Z"/><path d="M157.63,103.43a7.43,7.43,0,1,0,8.06-6.61A7.36,7.36,0,0,0,157.63,103.43Zm6.85,6.63a6,6,0,1,1,6.6-5.41A6,6,0,0,1,164.48,110.06Z"/><ellipse class="cls-6" cx="165.02" cy="104.1" rx="5.98" ry="6.08" transform="matrix(0.09, -1, 1, 0.09, 46.13, 258.81)"/><path class="cls-7" d="M164.36,111.38a7.31,7.31,0,1,0-6.73-7.95A7.37,7.37,0,0,0,164.36,111.38Z"/><ellipse class="cls-8" cx="165.02" cy="104.1" rx="5.98" ry="6.08" transform="translate(46.13 258.81) rotate(-84.7)"/><ellipse class="cls-9" cx="165.02" cy="104.1" rx="3.78" ry="3.85" transform="translate(46.13 258.81) rotate(-84.7)"/><path class="cls-1" d="M166.15,91.52a109.9,109.9,0,0,0-14.07-.34l-9.71-.31c-8.5-.31-17-.79-25.63-1.23q-4.29-.23-8.6-.42c-13.72-.09-27.57-1.39-41.23-1.61-3.41,0-6.81,0-10.2.08-10,.35-21,3.35-29.32,8.85"/><path class="cls-1" d="M170.42,92.68a76.27,76.27,0,0,0-10.8-4.57c-3.76-1.33-7.61-2.59-11.32-4.1-8.57-3.29-17-8.38-25.51-13.48-2.83-1.7-5.67-3.4-8.53-5A79.29,79.29,0,0,0,61.13,53.77,75.68,75.68,0,0,0,52,55.63,30.56,30.56,0,0,0,43.39,60"/><path class="cls-1" d="M174,95.26l-7.15-6.59q-3.57-3.28-7.14-6.54c-2.38-2-4.64-4.13-6.81-6.33-14.86-20.13-31.57-46.75-53.67-51.46a32.63,32.63,0,0,0-9.81-.6C80.71,23,73.71,29,66,32.39"/><path class="cls-1" d="M176.56,98.87c-4.75-6.85-8.26-15-11.63-23.33-1.11-2.82-2.21-5.66-3.31-8.55-1.24-2.74-2.46-5.65-3.71-8.62s-2.53-6-3.88-9.08C146.71,31,134.71,12,113.64,11.29"/><path class="cls-1" d="M177.7,103.08s-.32-2.13-.87-5.9c-2.85-11.66-3.28-23.77-3.6-35.93-.08-3-.16-6.09-.26-9.13a138.23,138.23,0,0,0-8.63-44.88"/><path class="cls-1" d="M177.3,107.41l1.17-5.55C189.71,74,177.71,21,211.55,10.38"/><path class="cls-1" d="M175.43,111.34l4.21-6.71c1.33-2.12,2.94-4.68,4.77-7.62,14.3-24,25.3-49,48.09-64.48A56.19,56.19,0,0,1,239.67,28a48.1,48.1,0,0,1,8-3.41"/><path class="cls-1" d="M172.29,114.39,195.2,96.66l8.51-6.6c6-5,13-10,18.85-14.59l9.82-7.6,9.74-7.53L247.7,56c10-7,20-18,33.68-16.77"/><path class="cls-1" d="M168.29,116.21,258.81,87l6.87-2.21a130,130,0,0,1,31.83-7.88"/><path class="cls-1" d="M163.89,116.57,280,120.3c4.22.14,8.12.22,11.6.08,5.15-.34,11.15-.34,16-2"/><path class="cls-1" d="M159.62,115.42l86.28,34,11.25,4.44c10.56,4.14,24.56,7.14,34.49-2.23"/><path class="cls-1" d="M156,112.91l37.91,33.35c1.59,1.4,3.2,2.82,4.83,4.23A114.34,114.34,0,0,0,221.07,168c2.66,1.65,5.38,3.23,8.12,4.76,10.52,5.26,21.52,11.26,33.45,15.3"/><path class="cls-1" d="M153.48,109.33l26,47.5c1.07,2,2.16,4,3.25,5.95,7.53,12.72,14.34,29.42,28.71,32.57a24.09,24.09,0,0,0,9.6.07"/><path class="cls-1" d="M152.35,105.13l7.47,50.43,1.78,12c2.11,20.51,5.11,41.51,16.82,58.28"/><path class="cls-1" d="M152.75,100.8l-10.56,50.1c-.81,3.89-1.65,7.87-2.5,11.86-3.49,9.14-4.23,18.46-4.48,27.84-.08,3.13-.1,6.25-.08,9.31-.42,6.13-.42,12.13-.39,17.65"/><path class="cls-1" d="M154.62,96.87l-32.36,51.47-3.66,5.81c-1.31,2.48-2.71,4.91-4.16,7.31-5.61,9.65-12.1,18.9-16.72,29.1-.93,2-1.78,4.12-2.53,6.25"/><path class="cls-1" d="M157.75,93.81l-5.57,4.31-57.34,44.4-5,3.89C77.71,156,66.71,165,54.24,174.87"/><path class="cls-1" d="M161.76,92s-2.53.85-6.91,2.27L147,96.76,57.74,125.54l-6.22,2C42.71,130,34.71,134,25.67,137.1"/><path class="cls-1" d="M166.15,91.52a109.9,109.9,0,0,0-14.07-.34l-9.71-.31c-8.5-.31-17-.79-25.63-1.23q-4.29-.23-8.6-.42c-13.72-.09-27.57-1.39-41.23-1.61-3.41,0-6.81,0-10.2.08-10,.35-21,3.35-29.32,8.85"/><path class="cls-1" d="M163.38,116.52l-60.88-9.38-14-2.14c-19.82-1-40.82-11-60.75-4.18"/><path class="cls-1" d="M159.16,115.2,134,101.55l-9.39-5.11c-2.61-1.17-5.16-2.5-7.67-3.92s-5-2.94-7.44-4.5A122,122,0,0,0,67.27,68.67c-3-.74-6-1.39-9.07-1.94-6.49-1.69-11.49-1.69-18,.58"/><path class="cls-1" d="M155.65,112.55l-11.6-13c-2.37-2.65-5-5.62-7.87-8.84-5.84-7.38-11.1-16.42-16.69-25.12-1.86-2.9-3.76-5.76-5.73-8.51C102.71,39,81.71,28,61,35.4"/><path class="cls-1" d="M153.27,108.88l-4.53-11.47-3.16-8c-15.87-23.38-5.87-63.38-37.5-74"/><path class="cls-1" d="M152.31,104.63,152,92.93c0-2.45-.11-5.21-.2-8.36a73.74,73.74,0,0,0,.83-9.26c.09-3.11,0-6.23-.14-9.37C151.71,53,149.71,41,151,28.16a65.22,65.22,0,0,1,1.55-9.34,53.82,53.82,0,0,1,3.19-9.24"/><path class="cls-1" d="M152.88,100.32l2.08-6a53.39,53.39,0,0,0,4-9c1.13-3.27,2.09-6.77,2.95-10.4C166.71,57,166.71,37,176.74,21.43A33.1,33.1,0,0,1,183,14.3c4.84-4,11.12-6.4,19.48-6.44"/><path class="cls-1" d="M154.91,96.46s1.23-1.49,3.38-4.17C177.71,62,191.71,22,234.22,25.81c3.13-.9,6.29-1.73,9.45-2.52"/><path class="cls-1" d="M158.17,93.52C179.71,81,198.71,62,224.14,54.76c2.83-1.34,5.59-2.88,8.33-4.46s5.45-3.19,8.16-4.8C252.71,39,263.71,30,277.78,30.62"/><path class="cls-1" d="M162.25,91.82C180.71,87,199.71,85,217.41,81.2L223.79,80l32-6.18,7.1-1.36c10.86-1.4,21.86-3.4,32.59-2.67"/><path class="cls-1" d="M166.66,91.56C174.71,92,182.71,95,191,95.41l11.67,1.82,67.77,10.43,11,1.71c9.27,1.67,18.27,1.67,27,1.46"/><path class="cls-1" d="M170.88,92.9c5.83,3.14,11.83,6.14,17.85,9.78l8.74,4.74,53.75,29.15,6,3.22c11.53,6.25,24.53,9.25,37,2.79"/><path class="cls-1" d="M174.4,95.63l4.89,5.52,5.56,6.25,24.71,27.78,4.43,5a162.69,162.69,0,0,0,20.77,21.75q2.84,2.51,5.78,4.91C249.71,173,258.71,181,268.69,185"/><path class="cls-1" d="M176.78,99.33l2.39,6.07,15.13,38.27,2.45,6.19c5.31,10.78,8.41,24.6,15.72,34a28.5,28.5,0,0,0,6.38,6.12,22.92,22.92,0,0,0,8.59,3.48"/><path class="cls-1" d="M177.74,103.58l1.31,58.12.15,6.64c1.51,18.7.51,37.7,6.26,55.32"/><path class="cls-1" d="M177.17,107.89l-19.54,56.66q-1.19,3.44-2.38,6.89c-3.77,7.8-5.91,16.2-7.88,24.63-.66,2.8-1.29,5.61-1.94,8.38-.72,4.59-2.72,10.59-4.14,15.43"/><path class="cls-1" d="M175.13,111.74l-32.55,39.85L134.87,161c-7.44,8-13.92,16.89-20.87,25.18-1.74,2.07-3.5,4.1-5.32,6.07s-3.67,3.87-5.59,5.67"/><path class="cls-1" d="M171.88,114.68,102,156.21c-2.08,1.24-4.15,2.48-6.2,3.69C82.71,168,69.71,174,56.86,181.6"/><path class="cls-1" d="M167.8,116.34,89.18,131.53,81.66,133c-9,2-18,3.29-26.91,4.63-3,.44-6,.89-8.94,1.38a155.79,155.79,0,0,0-17.3,3.81"/></g></g></svg>